<svg id="Camada_1" data-name="Camada 1" xmlns="http://www.w3.org/2000/svg" viewBox="0 0 431.82 77.36"><defs><style>.cls-1,.cls-2,.cls-3{fill:#fff;}.cls-1,.cls-2,.cls-4{fill-rule:evenodd;}.cls-1{isolation:isolate;opacity:0.7;}.cls-4{fill:#e8c95c;}</style></defs><g id="logo"><path class="cls-1" d="M367.22,44.05H352.48a14.91,14.91,0,1,0,0,29.81h14.74V68H352.48a9.06,9.06,0,1,1,0-18.11h14.74Z" transform="translate(-23.73 -19.26)"/><path class="cls-2" d="M440.12,49.81V62.76a11,11,0,0,0,11,11h4.38V68h-4.38A5.19,5.19,0,0,1,446,62.76V49.81h9.58V44H446V34.08h-5.85V44h-4.45v5.85Zm-38,3a9,9,0,0,1,9-8.9h18v5.78h-18a3.13,3.13,0,1,0,0,6.25h10.7a8.91,8.91,0,1,1,0,17.81H402.28V68h19.53a3.13,3.13,0,1,0,0-6.25h-10.7A9,9,0,0,1,402.09,52.86Zm-19.71-3H367.47a9.06,9.06,0,0,0,0,18.11h14.91a9.06,9.06,0,0,0,0-18.11Zm-14.91-5.85a14.91,14.91,0,0,0,0,29.81h14.91a14.91,14.91,0,0,0,0-29.81ZM302.42,73.83V34.08h5.84V47.43a14.91,14.91,0,1,1,0,23v3.42Zm6.29-14.91a9.06,9.06,0,1,0,9.05-9.06A9.06,9.06,0,0,0,308.71,58.92Z" transform="translate(-23.73 -19.26)"/><path class="cls-3" d="M132.71,44c-6.7,0-11.59,3.48-12.66,8.83l5.85,1.4c.73-3.6,3.43-5.28,6.81-5.28s5.79,1.74,5.79,4.55c0,1.86-1.06,2.64-3.15,2.81l-5.57.56c-5.4.57-10.58,2.87-10.58,8.94,0,5,3.88,8,9.29,8a12.2,12.2,0,0,0,10-4.83v4.27h5.91V54.49C144.41,47.51,139.35,44,132.71,44ZM129.78,69.1c-2.81,0-4.67-1.46-4.67-3.71s1.91-3.6,4.67-3.93l5.46-.68c1.58-.17,2.65-.39,3.26-1V61C138.5,65.17,134.73,69.1,129.78,69.1Z" transform="translate(-23.73 -19.26)"/><path class="cls-3" d="M148,59c0,8.44,6.59,14.9,15.26,14.9a14.51,14.51,0,0,0,13.78-9L171.55,63a8.75,8.75,0,0,1-8.32,5.45A9.14,9.14,0,0,1,154.05,59a9.15,9.15,0,0,1,9.18-9.5,8.83,8.83,0,0,1,8.32,5.46L177,53.08a14.51,14.51,0,0,0-13.78-9C154.56,44,148,50.49,148,59Z" transform="translate(-23.73 -19.26)"/><path class="cls-3" d="M179.15,59c0,8.44,6.59,14.9,15.25,14.9a14.52,14.52,0,0,0,13.79-9L202.73,63a8.76,8.76,0,0,1-8.33,5.45A9.13,9.13,0,0,1,185.23,59a9.14,9.14,0,0,1,9.17-9.5,8.85,8.85,0,0,1,8.33,5.46l5.46-1.86a14.52,14.52,0,0,0-13.79-9C185.74,44,179.15,50.49,179.15,59Z" transform="translate(-23.73 -19.26)"/><path class="cls-3" d="M225.3,44a14.67,14.67,0,0,0-15,14.95c0,8.44,6.58,14.9,15.25,14.9a15,15,0,0,0,13.62-8l-4.95-2.19a9.63,9.63,0,0,1-18-2.7H240.1C241.17,51.56,234.53,44,225.3,44Zm0,5.11a8.89,8.89,0,0,1,8.83,7.2H216.46A9,9,0,0,1,225.3,49.14Z" transform="translate(-23.73 -19.26)"/><path class="cls-3" d="M242.43,65.73c.9,5,5.29,8.15,12.21,8.15s12.21-3.71,12.21-8.77c0-11.58-17.61-6.24-17.61-12.65,0-2.19,2.25-3.65,5.4-3.65,3.32,0,5.4,1.63,5.85,4.61l5.91-1.24c-.84-5-5.18-8.15-11.76-8.15s-11.37,3.71-11.37,8.71c0,11.25,17.62,5.85,17.62,12.48,0,2.2-2.48,3.88-6.25,3.88-3.6,0-5.8-1.63-6.3-4.61Z" transform="translate(-23.73 -19.26)"/><path class="cls-3" d="M268.33,65.73c.9,5,5.29,8.15,12.21,8.15s12.21-3.71,12.21-8.77c0-11.58-17.61-6.24-17.61-12.65,0-2.19,2.25-3.65,5.4-3.65,3.32,0,5.4,1.63,5.85,4.61l5.91-1.24c-.84-5-5.18-8.15-11.76-8.15s-11.37,3.71-11.37,8.71c0,11.25,17.62,5.85,17.62,12.48,0,2.2-2.48,3.88-6.25,3.88-3.6,0-5.8-1.63-6.3-4.61Z" transform="translate(-23.73 -19.26)"/><path class="cls-4" d="M62.41,27.45a30.5,30.5,0,1,0,30.5,30.49A30.5,30.5,0,0,0,62.41,27.45ZM23.73,57.94A38.68,38.68,0,1,1,62.41,96.63,38.68,38.68,0,0,1,23.73,57.94ZM70,59.75H82.7V51.57H42.33v8.18H54.72l-8.67,14.5,7.66,4.58,8.63-14.42L71,78.83l7.66-4.58ZM62.29,47.93a5.46,5.46,0,1,0-5.46-5.46A5.46,5.46,0,0,0,62.29,47.93Z" transform="translate(-23.73 -19.26)"/></g></svg>