<svg xmlns="http://www.w3.org/2000/svg" viewBox="0 0 697.27 252.07"><path d="M72.67,180A6.77,6.77,0,0,0,71,175.09a6,6,0,0,0-4.6-1.8,8.44,8.44,0,0,0-5,1.45c-1.38,1-2.33,2.68-2.85,5.13l-12.63-3a15.65,15.65,0,0,1,6.49-10.08Q57.68,163,67.23,163a28.45,28.45,0,0,1,10.92,1.88,14.85,14.85,0,0,1,6.94,5.61,16.6,16.6,0,0,1,2.41,9.16v16.05q0,3.42,3.07,3.42a7.68,7.68,0,0,0,2.54-.35l-.87,8.5a15.11,15.11,0,0,1-6.41,1.23,15.81,15.81,0,0,1-6-1.09,9,9,0,0,1-4.13-3.34,10,10,0,0,1-1.49-5.65v-.53l1.67-.61a9.18,9.18,0,0,1-2.24,6.31,13.29,13.29,0,0,1-5.79,3.77,22.46,22.46,0,0,1-7.41,1.23,20.17,20.17,0,0,1-7.81-1.4,11.31,11.31,0,0,1-5.13-4.08,11.61,11.61,0,0,1-1.8-6.62,11.18,11.18,0,0,1,2.85-7.85c1.91-2.07,4.9-3.52,9-4.34l16.57-3.42L74,188.81l-8.42,1.76a9.3,9.3,0,0,0-3.91,1.53,3.62,3.62,0,0,0-1.27,3A3.27,3.27,0,0,0,61.8,198a5.73,5.73,0,0,0,3.33,1,9,9,0,0,0,2.85-.44,6.82,6.82,0,0,0,2.41-1.35,6.56,6.56,0,0,0,1.67-2.33,8.22,8.22,0,0,0,.61-3.33Z" fill="#fdedf4"/><path d="M119.43,163a28.64,28.64,0,0,1,11.1,1.88,17.44,17.44,0,0,1,6.93,5,14.57,14.57,0,0,1,3.11,6.7l-13.77,4.56a11.43,11.43,0,0,0-2.24-5.65,5.83,5.83,0,0,0-4.69-1.89,8.17,8.17,0,0,0-4.69,1.28,7.61,7.61,0,0,0-2.85,4,21.53,21.53,0,0,0-1,7.06,19.41,19.41,0,0,0,1,7,7.62,7.62,0,0,0,3,3.86A8.65,8.65,0,0,0,120,198a7.3,7.3,0,0,0,3.65-.83,7,7,0,0,0,2.41-2.41,9.55,9.55,0,0,0,1.23-3.86l13.42,4.29a13.43,13.43,0,0,1-3.29,6.89,18.45,18.45,0,0,1-7.06,4.78A30.88,30.88,0,0,1,107.5,206a19,19,0,0,1-8.25-7.81,27.7,27.7,0,0,1,0-24.64,19.15,19.15,0,0,1,8.12-7.8A26.13,26.13,0,0,1,119.43,163Z" fill="#fdedf4"/><path d="M169.69,208.63a27.1,27.1,0,0,1-12.5-2.72,19.18,19.18,0,0,1-8.16-7.76,28.05,28.05,0,0,1,0-24.64,19.36,19.36,0,0,1,8.07-7.76,25.58,25.58,0,0,1,12-2.71,24,24,0,0,1,11.75,2.67,18.48,18.48,0,0,1,7.41,7.36,21.83,21.83,0,0,1,2.59,10.74c0,1.12,0,2.18-.09,3.21a24.24,24.24,0,0,1-.26,2.58H155.74v-8.06H184l-7.2,2.8c0-3.51-.62-6.19-1.88-8.07a6.53,6.53,0,0,0-5.83-2.8,8.44,8.44,0,0,0-4.78,1.31,8,8,0,0,0-3,4.08,21.24,21.24,0,0,0-1,7.15,17.69,17.69,0,0,0,1.15,7,7.92,7.92,0,0,0,3.24,3.86,9.94,9.94,0,0,0,5.09,1.23,9.44,9.44,0,0,0,5.31-1.32,7.86,7.86,0,0,0,2.93-3.68l11.94,4a13.86,13.86,0,0,1-4.26,6.27,20.22,20.22,0,0,1-7.15,3.9A28.89,28.89,0,0,1,169.69,208.63Z" fill="#fdedf4"/><path d="M217.59,208.63a34.23,34.23,0,0,1-12.24-2.15,24.6,24.6,0,0,1-9.43-6.18l7-8.24a18.63,18.63,0,0,0,5.87,4.69,17.1,17.1,0,0,0,8.08,1.88,11.94,11.94,0,0,0,4.56-.74,2.57,2.57,0,0,0,1.75-2.5,2.43,2.43,0,0,0-.88-2,9,9,0,0,0-3.5-1.36l-6.06-1.14q-8.32-1.66-11.84-5a11.27,11.27,0,0,1-3.51-8.63,11.78,11.78,0,0,1,2.24-6.84,16.21,16.21,0,0,1,6.84-5.35,28.08,28.08,0,0,1,11.62-2.1A33.18,33.18,0,0,1,229.87,165a19.36,19.36,0,0,1,8.16,5.61l-7.2,8.07a13.51,13.51,0,0,0-5.43-4.16,16.79,16.79,0,0,0-6.76-1.45,12.9,12.9,0,0,0-3.46.4,4.49,4.49,0,0,0-2.15,1.13,2.38,2.38,0,0,0,.39,3.69,10.63,10.63,0,0,0,4.08,1.44l8,1.58q6.77,1.23,9.74,4.47a11.26,11.26,0,0,1,3,7.9,13.52,13.52,0,0,1-2.28,7.58,15,15,0,0,1-6.84,5.43A29,29,0,0,1,217.59,208.63Z" fill="#fdedf4"/><path d="M264.34,208.63a34.22,34.22,0,0,1-12.23-2.15,24.6,24.6,0,0,1-9.43-6.18l7-8.24a18.56,18.56,0,0,0,5.88,4.69,17.09,17.09,0,0,0,8.07,1.88,12,12,0,0,0,4.57-.74,2.57,2.57,0,0,0,1.75-2.5,2.46,2.46,0,0,0-.88-2,9,9,0,0,0-3.51-1.36l-6.05-1.14q-8.34-1.66-11.84-5a11.27,11.27,0,0,1-3.51-8.63,11.78,11.78,0,0,1,2.24-6.84,16.21,16.21,0,0,1,6.84-5.35,28,28,0,0,1,11.62-2.1A33.26,33.26,0,0,1,276.63,165a19.32,19.32,0,0,1,8.15,5.61l-7.19,8.07a13.54,13.54,0,0,0-5.44-4.16A16.71,16.71,0,0,0,265.4,173a13,13,0,0,0-3.47.4,4.59,4.59,0,0,0-2.15,1.13,2.47,2.47,0,0,0-.7,1.71,2.43,2.43,0,0,0,1.1,2,10.64,10.64,0,0,0,4.07,1.44l8,1.58q6.75,1.23,9.73,4.47a11.27,11.27,0,0,1,3,7.9,13.52,13.52,0,0,1-2.28,7.58,15,15,0,0,1-6.84,5.43A29,29,0,0,1,264.34,208.63Z" fill="#fdedf4"/><path d="M346.36,208.63a14.82,14.82,0,0,1-7.59-1.93,15.61,15.61,0,0,1-5.39-5.3,19.45,19.45,0,0,1-2.72-7.68l1.4-1.84-.78,15.87H318.2V145.32h14.92v32.36l-1.41-2.11a17.24,17.24,0,0,1,5-9q3.77-3.56,10.18-3.55a15.76,15.76,0,0,1,9.08,2.71,17.85,17.85,0,0,1,6.23,7.85A31,31,0,0,1,364.43,186a29.7,29.7,0,0,1-2.28,12.19,17.8,17.8,0,0,1-6.31,7.76A16.78,16.78,0,0,1,346.36,208.63Zm-5.17-11a7.21,7.21,0,0,0,6.05-2.85q2.19-2.85,2.19-9t-2.19-9a7.21,7.21,0,0,0-6.05-2.85,6.7,6.7,0,0,0-4.34,1.44,9.06,9.06,0,0,0-2.77,4.08,21.81,21.81,0,0,0,0,12.8,8.38,8.38,0,0,0,2.81,4A7,7,0,0,0,341.19,197.67Z" fill="#fdedf4"/><path d="M413.47,145.32v47.52a6.74,6.74,0,0,0,1,4.13,3.86,3.86,0,0,0,3.24,1.23,11.08,11.08,0,0,0,2.19-.18c.59-.12,1.29-.29,2.11-.53l-1,8.95a14.19,14.19,0,0,1-4.12,1.57,21.25,21.25,0,0,1-5,.62q-7,0-10.17-3.24t-3.16-10.61V145.32Z" fill="#fdedf4"/><path d="M469.09,208.63a17,17,0,0,1-9.53-2.67,17.39,17.39,0,0,1-6.31-7.76A30.22,30.22,0,0,1,451,186a29.85,29.85,0,0,1,2.33-12.45,18,18,0,0,1,6.49-7.81,17.21,17.21,0,0,1,9.61-2.71,13,13,0,0,1,9.6,3.63,17.21,17.21,0,0,1,4.69,9.26l-1.4,1.84V145.32h14.91v62.43H483.91l-1-14.91,1.76,1.32a17.21,17.21,0,0,1-2.68,7.63,15.16,15.16,0,0,1-5.44,5A15.34,15.34,0,0,1,469.09,208.63Zm5.17-11a7,7,0,0,0,4.34-1.36,8.45,8.45,0,0,0,2.76-4.08,19.85,19.85,0,0,0,1-6.66,18.9,18.9,0,0,0-.92-6.27,8.19,8.19,0,0,0-2.72-3.94,7,7,0,0,0-4.34-1.36,7.33,7.33,0,0,0-6.1,2.85q-2.24,2.85-2.23,9c0,4.09.72,7.09,2.19,9A7.21,7.21,0,0,0,474.26,197.67Z" fill="#fdedf4"/><path d="M532.42,180a6.77,6.77,0,0,0-1.71-4.87,6.06,6.06,0,0,0-4.61-1.8,8.47,8.47,0,0,0-5,1.45c-1.37,1-2.32,2.68-2.85,5.13l-12.63-3a15.65,15.65,0,0,1,6.49-10.08Q517.42,163,527,163a28.45,28.45,0,0,1,10.92,1.88,14.82,14.82,0,0,1,6.93,5.61,16.51,16.51,0,0,1,2.41,9.16v16.05q0,3.42,3.07,3.42a7.75,7.75,0,0,0,2.55-.35l-.88,8.5a15.08,15.08,0,0,1-6.41,1.23,15.88,15.88,0,0,1-6.05-1.09,9,9,0,0,1-4.12-3.34,10,10,0,0,1-1.49-5.65v-.53l1.67-.61a9.23,9.23,0,0,1-2.24,6.31,13.29,13.29,0,0,1-5.79,3.77,22.52,22.52,0,0,1-7.42,1.23,20.08,20.08,0,0,1-7.8-1.4,11.31,11.31,0,0,1-5.13-4.08,11.61,11.61,0,0,1-1.8-6.62,11.18,11.18,0,0,1,2.85-7.85q2.85-3.1,9-4.34l16.58-3.42-.09,7.89-8.42,1.76a9.3,9.3,0,0,0-3.9,1.53,3.62,3.62,0,0,0-1.28,3,3.27,3.27,0,0,0,1.41,2.89,5.75,5.75,0,0,0,3.33,1,9.05,9.05,0,0,0,2.86-.44,6.91,6.91,0,0,0,2.41-1.35,6.54,6.54,0,0,0,1.66-2.33,8.21,8.21,0,0,0,.62-3.33Z" fill="#fdedf4"/><path d="M574.53,208.63A17,17,0,0,1,565,206a17.35,17.35,0,0,1-6.32-7.76A30.22,30.22,0,0,1,556.45,186a29.85,29.85,0,0,1,2.33-12.45,18,18,0,0,1,6.49-7.81,17.21,17.21,0,0,1,9.61-2.71,13,13,0,0,1,9.6,3.63,17.29,17.29,0,0,1,4.7,9.26l-1.41,1.84V145.32h14.91v62.43H589.35l-1-14.91,1.76,1.32a17.21,17.21,0,0,1-2.68,7.63,15.22,15.22,0,0,1-5.43,5A15.41,15.41,0,0,1,574.53,208.63Zm5.17-11a6.94,6.94,0,0,0,4.34-1.36,8.53,8.53,0,0,0,2.77-4.08,20.12,20.12,0,0,0,1-6.66,18.9,18.9,0,0,0-.92-6.27,8.19,8.19,0,0,0-2.72-3.94,7,7,0,0,0-4.34-1.36,7.34,7.34,0,0,0-6.1,2.85q-2.24,2.85-2.23,9c0,4.09.72,7.09,2.19,9A7.21,7.21,0,0,0,579.7,197.67Z" fill="#fdedf4"/><path d="M634.7,208.63a27.13,27.13,0,0,1-12.5-2.72,19.21,19.21,0,0,1-8.15-7.76,28.05,28.05,0,0,1,0-24.64,19.36,19.36,0,0,1,8.07-7.76,25.56,25.56,0,0,1,12-2.71,24,24,0,0,1,11.76,2.67,18.61,18.61,0,0,1,7.41,7.36,21.94,21.94,0,0,1,2.59,10.74c0,1.12,0,2.18-.09,3.21s-.15,1.88-.26,2.58H620.76v-8.06H649l-7.19,2.8c0-3.51-.63-6.19-1.89-8.07a6.52,6.52,0,0,0-5.83-2.8,8.49,8.49,0,0,0-4.78,1.31,8,8,0,0,0-3,4.08,21.24,21.24,0,0,0-1,7.15,17.89,17.89,0,0,0,1.14,7,7.92,7.92,0,0,0,3.24,3.86,9.94,9.94,0,0,0,5.09,1.23,9.44,9.44,0,0,0,5.31-1.32,7.88,7.88,0,0,0,2.94-3.68l11.93,4a13.86,13.86,0,0,1-4.26,6.27,20.13,20.13,0,0,1-7.15,3.9A28.85,28.85,0,0,1,634.7,208.63Z" fill="#fdedf4"/><path d="M309.57,207.73h-15V163.38a17.58,17.58,0,0,0,15,0Z" fill="#fdedf4"/><path d="M388.37,207.73h-15V163.38a17.58,17.58,0,0,0,15,0Z" fill="#fdedf4"/><path d="M444.66,207.73h-15V163.38a17.58,17.58,0,0,0,15,0Z" fill="#fdedf4"/><path d="M268.92,87.85c.52,12-17.91,37.12-32.25,37.73-7.39.33-14.66-5.33-15.26-16.84-4.2,5.81-8.64,10.61-12.33,10.77-10.62.46-14.66-6.81-15.24-20.27-9.11,10.86-18.32,31.64-29.65,32.13-5.14.23-13.75-6.32-14.11-14.63a36.41,36.41,0,0,1,.08-4.18c-4.87,6-10.26,11.17-14.51,11.36-6.55.28-12.58-3.71-13.83-12a31,31,0,0,1-.12-6.91c-.81,1.82-11.28,26.38-24.38,27-8.14.35-14.8-6.1-15.11-13.18-.46-14.7,18.19-34.65,17.91-41,0-.71-.75-1-1.64-1-1.42.06-16.63-.24-24.42.1C65.4,98-3.31,171.24,15.29,239c2.24,8.19,3.26,9.95,3.33,11.37,0,.71-.81,1.64-2.23,1.7-4.25.18-15-7-16-21.46C-5.11,153.86,50.79,96.68,60.69,75.51c-8.93-.44-11.84-1.56-15.51-3.93-2-1.28-3.92-4.67,3-5,.71,0,9.34,1.72,16.11,1.31,5.36-11.58,9.67-22.41,10.2-30.76.11-1.61.6-2.33,1.67-2.38,1.23-.05,6.28,1.68,6.71,11.59C82.91,52,80.76,59.57,77.58,68c13.28-.57,35.65,1.19,36.1,11.46.27,6.19-14.43,27.4-13.87,40.31.07,1.6,1,2.45,2.24,2.39,2.83-.12,8.24-6.21,17.41-24,8-15.59,9-24.85,14-25.07,5.13-.22,8.57,5.47,8.7,8.49.31,7.25-7.76,21.43-7.37,30.45a2.84,2.84,0,0,0,3,2.89c3.53-.15,12.44-13.15,18.33-21.19,8.06-14.63,22.54-25.79,33-26.24,4.43-.19,7.92,2.85,8,4.62.05,1-4.12,3-8,6.91-7.48,7.41-26.39,25.61-25.66,42.41.06,1.24.63,2.1,1.69,2,4.07-.17,27.8-33.82,35.18-47.79,12-22.67,18.9-46.91,22.86-70.13.69-4.46.83-5.53,2.6-5.61,3.89-.17,12,6.05,12.45,17.2.7,16.28-34,70.08-33.16,90.42.13,3,1.11,5.09,2.87,5,3.49-.15,11.82-12.09,17.83-21.14C232.52,77.88,246,65.44,256.58,65c4.07-.17,8.5,3.9,8.59,6,.07,1.59-1.31,2.36-4.09,3.9-10.39,5.77-26.42,24.72-25.7,41.35.09,2.12,1.39,3.3,3.16,3.23,6.73-.29,22.74-23.5,22.43-38.91-.05-1.24.28-1.78,1.17-1.82C264.61,78.64,268.65,81.83,268.92,87.85Zm90.7-4.17a7.12,7.12,0,0,1-1.26,3.6c-6.14,9.85-23.58,33.29-35.26,33.8-11,.47-21.71-5.81-22.32-19.79-1-22.3,19.89-40.39,32.46-40.94,4.43-.19,10.71,5.74,10.95,11.06.32,11.51-12.05,25-21.43,25.39-2.13.09-5.75-1.7-5.75-1.7a30.49,30.49,0,0,0-1.78,12.31c.24,5.31,2.26,7,4.56,6.89,12-.52,27-19.6,35.15-32.19.67-.92,1-1.47,1.53-1.49C358.06,80.55,359.56,82.44,359.62,83.68Zm-40.56,5.66c4.61-.2,18.35-14.63,18.5-19.43,0-.7-.41-1.22-.94-1.2C334.67,68.8,327.24,73.38,319.06,89.34ZM329.68,52.1c2.1-.1,11.6-10.22,11.48-13s-4-7.56-5.84-7.48c-1.55.07-2.8,4.43-4.72,8.38-2.13,4.4-4.66,7.16-4.58,9S328.25,52.16,329.68,52.1Zm-27.45,93.43a7.45,7.45,0,1,0,7.45,7.45A7.45,7.45,0,0,0,302.23,145.53Zm78.64,0a7.45,7.45,0,1,0,7.46,7.45A7.46,7.46,0,0,0,380.87,145.53Zm56.18,0A7.45,7.45,0,1,0,444.5,153,7.46,7.46,0,0,0,437.05,145.53ZM670.46,133.3c11.79,26.53,28.66,58.15,7.49,93.42-5.54,9.24-5.53,11.86-6,13.71a3.14,3.14,0,0,0,1.47,3.18c3.63,2,14-3.31,19.68-21.85,12.57-40.85-7.2-78.27-11.51-87.23l-6.41-12.44c-4.31-8.38-11.17-3.9-9.2,1" fill="#e7236b"/></svg>